<?xml version="1.0" encoding="UTF-8" standalone="no"?>
<!-- Uploaded to: SVG Repo, www.svgrepo.com, Generator: SVG Repo Mixer Tools -->

<svg
   fill="#000000"
   version="1.1"
   id="Layer_1"
   width="282.18988"
   height="183.99852"
   viewBox="0 0 180.60152 117.75905"
   enable-background="new 0 0 512 512"
   xml:space="preserve"
   sodipodi:docname="maizeless_logo.svg"
   inkscape:version="1.3.2 (091e20ef0f, 2023-11-25)"
   xmlns:inkscape="http://www.inkscape.org/namespaces/inkscape"
   xmlns:sodipodi="http://sodipodi.sourceforge.net/DTD/sodipodi-0.dtd"
   xmlns="http://www.w3.org/2000/svg"
   xmlns:svg="http://www.w3.org/2000/svg"><defs
   id="defs5" /><sodipodi:namedview
   id="namedview5"
   pagecolor="#ffffff"
   bordercolor="#000000"
   borderopacity="0.25"
   inkscape:showpageshadow="2"
   inkscape:pageopacity="0.0"
   inkscape:pagecheckerboard="0"
   inkscape:deskcolor="#d1d1d1"
   showgrid="false"
   inkscape:zoom="1.5043697"
   inkscape:cx="227.6701"
   inkscape:cy="117.98962"
   inkscape:window-width="1910"
   inkscape:window-height="1026"
   inkscape:window-x="0"
   inkscape:window-y="0"
   inkscape:window-maximized="1"
   inkscape:current-layer="g9" />


<g
   id="g9"
   transform="rotate(30,1127.6056,-552.4695)"><g
     id="g1"
     transform="matrix(-0.11076214,-0.10115211,0.10115211,-0.11076214,544.2563,603.13838)"><path
       d="m 1010.9336,236.788 c -21.53995,-7.603 -52.63695,-15.466 -90.09995,-16.675 18.369,-24.139 35.818,-49.242 50.344,-72.993 C 1014.5276,76.234 1025.3776,31.547 1004.3296,10.516 997.34365,3.538 987.68365,0 975.61165,0 c -45.603,0 -134.513,55.898 -203.766,111.934 -7.464,-24.821 -20.635,-50.403 -41.874,-75.888 -2.323,-2.786 -6.048,-3.977 -9.554,-3.063 -3.512,0.911 -6.187,3.764 -6.863,7.318 -6.934,36.655 -27.753,118.042 -82.779,173.482 -6.684,6.734 -26.834,26.837 -26.834,26.837 -36.458,36.461 -44.513,90.438 -24.424,134.784 L 43.835178,912.78318 c -7.818,7.824 -7.818,20.509 0,28.333 l 31.595,31.58 c 7.816,7.826 20.501,7.826 28.319002,0 L 639.45165,435.299 c 15.459,7.003 32.32,10.844 49.617,10.854 31.93,0 62.556,-12.684 85.135,-35.264 0,0 20.151,-20.096 26.826,-26.836 25.913,-26.167 114.586,-111.088 208.54995,-129.218 4.156,-0.815 7.255,-4.288 7.572,-8.511 0.311,-4.222 -2.233,-8.135 -6.218,-9.536 z m -252.33295,22.884 c 13.347,-29.683 24.233,-68.143 20.45,-110.455 68.864,-58.074 191.003,-128.303 201.956,-114.552 10.953,13.751 -36.244,104.523 -103.377,187.123 -36.286,4.026 -76.6,15.11 -119.029,37.884 z"
       id="path1"
       sodipodi:nodetypes="ccccsccccccccccccccccccccscc" /><g
       id="g5"
       transform="translate(513.25665,-12.335)">
	<path
   d="m 385.877,138.147 c 0.594,0.587 1.394,0.929 2.234,0.929 0.839,0 1.637,-0.342 2.233,-0.929 l 22.588,-22.596 c 1.23,-1.239 1.23,-3.229 0,-4.467 l -10.109,-10.109 c -0.594,-0.585 -1.394,-0.928 -2.233,-0.928 -0.838,0 -1.638,0.342 -2.232,0.928 l -22.589,22.599 c -1.231,1.238 -1.231,3.227 0,4.465 z"
   id="path2" />
	<path
   d="m 333.323,161.574 c 0.596,0.588 1.394,0.93 2.233,0.93 0.84,0 1.64,-0.342 2.235,-0.93 l 22.595,-22.595 c 1.231,-1.239 1.241,-3.229 0,-4.468 l -10.107,-10.124 c -0.595,-0.588 -1.394,-0.93 -2.233,-0.93 -0.839,0 -1.639,0.342 -2.233,0.93 l -22.596,22.596 c -1.232,1.239 -1.238,3.228 0,4.467 z"
   id="path3" />
	<path
   d="m 379.413,153.537 c -0.596,-0.588 -1.394,-0.929 -2.233,-0.929 -0.839,0 -1.637,0.341 -2.233,0.929 l -22.588,22.597 c -1.23,1.239 -1.23,3.227 0,4.467 l 10.101,10.107 c 0.594,0.588 1.394,0.93 2.233,0.93 0.838,0 1.638,-0.342 2.231,-0.93 l 22.589,-22.596 c 1.231,-1.238 1.231,-3.227 0,-4.467 z"
   id="path4" />
	<path
   d="m 312.13,216.354 24.821,-24.814 c 0.596,-0.586 0.93,-1.401 0.93,-2.231 0,-0.834 -0.334,-1.649 -0.93,-2.235 l -10.106,-10.108 c -0.596,-0.588 -1.395,-0.93 -2.234,-0.93 -0.84,0 -1.64,0.342 -2.233,0.93 l -22.573,22.579 c -1.238,1.241 -1.238,3.229 0,4.468 z"
   id="path5" />
</g><g
       id="g8"
       transform="matrix(0.57275649,0.57275649,-0.57275649,0.57275649,771.66762,233.8502)"><path
         d="m 270.66693,462.70853 -531.13839,1.19975 c -0.46131,0.29049 5e-4,84.73048 5e-4,84.73048 l 531.15719,-1.19832"
         id="path1-3"
         style="stroke-width:0.83666" /><path
         sodipodi:type="star"
         style="fill:#000000;stroke:#000000;stroke-width:0.882899;stroke-dasharray:none;stroke-opacity:1"
         id="path8"
         inkscape:flatsided="true"
         sodipodi:sides="3"
         sodipodi:cx="57.757931"
         sodipodi:cy="794.17157"
         sodipodi:r1="342.2171"
         sodipodi:r2="171.10855"
         sodipodi:arg1="0.52359878"
         sodipodi:arg2="1.5707963"
         inkscape:rounded="0"
         inkscape:randomized="0"
         d="m 354.12663,965.28012 -592.7374,0 296.368702,-513.32565 z"
         inkscape:transform-center-y="-80.644809"
         transform="matrix(0.89255433,0,0,0.94261547,-46.121724,55.966364)" /></g></g></g></svg>
